<mxfile host="app.diagrams.net" agent="Mozilla/5.0 (Windows NT 10.0; Win64; x64) AppleWebKit/537.36 (KHTML, like Gecko) Chrome/127.0.0.0 Safari/537.36" version="24.7.7">
  <diagram id="C5RBs43oDa-KdzZeNtuy" name="Page-1">
    <mxGraphModel dx="1000" dy="530" grid="1" gridSize="10" guides="1" tooltips="1" connect="1" arrows="1" fold="1" page="1" pageScale="1" pageWidth="1654" pageHeight="2336" math="0" shadow="0">
      <root>
        <mxCell id="WIyWlLk6GJQsqaUBKTNV-0" />
        <mxCell id="WIyWlLk6GJQsqaUBKTNV-1" parent="WIyWlLk6GJQsqaUBKTNV-0" />
        <mxCell id="Wies4WJ11FOWQQCa9G5b-3" style="edgeStyle=orthogonalEdgeStyle;rounded=0;orthogonalLoop=1;jettySize=auto;html=1;" edge="1" parent="WIyWlLk6GJQsqaUBKTNV-1" source="Wies4WJ11FOWQQCa9G5b-0">
          <mxGeometry relative="1" as="geometry">
            <mxPoint x="185" y="150" as="targetPoint" />
          </mxGeometry>
        </mxCell>
        <mxCell id="Wies4WJ11FOWQQCa9G5b-0" value="start" style="ellipse;whiteSpace=wrap;html=1;" vertex="1" parent="WIyWlLk6GJQsqaUBKTNV-1">
          <mxGeometry x="145" y="70" width="80" height="40" as="geometry" />
        </mxCell>
        <mxCell id="Wies4WJ11FOWQQCa9G5b-1" value="end" style="ellipse;whiteSpace=wrap;html=1;" vertex="1" parent="WIyWlLk6GJQsqaUBKTNV-1">
          <mxGeometry x="145" y="400" width="80" height="40" as="geometry" />
        </mxCell>
        <mxCell id="Wies4WJ11FOWQQCa9G5b-5" style="edgeStyle=orthogonalEdgeStyle;rounded=0;orthogonalLoop=1;jettySize=auto;html=1;exitX=0.5;exitY=1;exitDx=0;exitDy=0;" edge="1" parent="WIyWlLk6GJQsqaUBKTNV-1" source="Wies4WJ11FOWQQCa9G5b-4">
          <mxGeometry relative="1" as="geometry">
            <mxPoint x="185" y="230" as="targetPoint" />
            <Array as="points">
              <mxPoint x="185" y="210" />
            </Array>
          </mxGeometry>
        </mxCell>
        <mxCell id="Wies4WJ11FOWQQCa9G5b-4" value="let area = 0 , PI, let r = 2" style="shape=parallelogram;perimeter=parallelogramPerimeter;whiteSpace=wrap;html=1;fixedSize=1;" vertex="1" parent="WIyWlLk6GJQsqaUBKTNV-1">
          <mxGeometry x="54" y="150" width="261" height="40" as="geometry" />
        </mxCell>
        <mxCell id="Wies4WJ11FOWQQCa9G5b-7" style="edgeStyle=orthogonalEdgeStyle;rounded=0;orthogonalLoop=1;jettySize=auto;html=1;exitX=0.5;exitY=1;exitDx=0;exitDy=0;" edge="1" parent="WIyWlLk6GJQsqaUBKTNV-1" source="Wies4WJ11FOWQQCa9G5b-6" target="Wies4WJ11FOWQQCa9G5b-8">
          <mxGeometry relative="1" as="geometry">
            <mxPoint x="185" y="320" as="targetPoint" />
          </mxGeometry>
        </mxCell>
        <mxCell id="Wies4WJ11FOWQQCa9G5b-6" value="area = Pi*(r * r)" style="rounded=0;whiteSpace=wrap;html=1;" vertex="1" parent="WIyWlLk6GJQsqaUBKTNV-1">
          <mxGeometry x="50" y="230" width="270" height="60" as="geometry" />
        </mxCell>
        <mxCell id="Wies4WJ11FOWQQCa9G5b-9" value="" style="edgeStyle=orthogonalEdgeStyle;rounded=0;orthogonalLoop=1;jettySize=auto;html=1;" edge="1" parent="WIyWlLk6GJQsqaUBKTNV-1" source="Wies4WJ11FOWQQCa9G5b-8" target="Wies4WJ11FOWQQCa9G5b-1">
          <mxGeometry relative="1" as="geometry" />
        </mxCell>
        <mxCell id="Wies4WJ11FOWQQCa9G5b-8" value="area output" style="shape=parallelogram;perimeter=parallelogramPerimeter;whiteSpace=wrap;html=1;fixedSize=1;" vertex="1" parent="WIyWlLk6GJQsqaUBKTNV-1">
          <mxGeometry x="122" y="320" width="126" height="40" as="geometry" />
        </mxCell>
        <mxCell id="Wies4WJ11FOWQQCa9G5b-10" value="&lt;b&gt;&lt;font style=&quot;font-size: 14px;&quot;&gt;Question 1 find Area&amp;nbsp;&lt;/font&gt;&lt;/b&gt;" style="text;html=1;align=center;verticalAlign=middle;whiteSpace=wrap;rounded=0;" vertex="1" parent="WIyWlLk6GJQsqaUBKTNV-1">
          <mxGeometry x="10" y="10" width="180" height="40" as="geometry" />
        </mxCell>
        <mxCell id="Wies4WJ11FOWQQCa9G5b-12" value="" style="swimlane;startSize=0;" vertex="1" parent="WIyWlLk6GJQsqaUBKTNV-1">
          <mxGeometry x="20" y="60" width="350" height="400" as="geometry" />
        </mxCell>
        <mxCell id="Wies4WJ11FOWQQCa9G5b-14" style="edgeStyle=orthogonalEdgeStyle;rounded=0;orthogonalLoop=1;jettySize=auto;html=1;exitX=1;exitY=0.5;exitDx=0;exitDy=0;entryX=0.605;entryY=-0.003;entryDx=0;entryDy=0;entryPerimeter=0;" edge="1" parent="WIyWlLk6GJQsqaUBKTNV-1" source="Wies4WJ11FOWQQCa9G5b-10" target="Wies4WJ11FOWQQCa9G5b-12">
          <mxGeometry relative="1" as="geometry" />
        </mxCell>
        <mxCell id="Wies4WJ11FOWQQCa9G5b-40" style="edgeStyle=orthogonalEdgeStyle;rounded=0;orthogonalLoop=1;jettySize=auto;html=1;exitX=1;exitY=0.5;exitDx=0;exitDy=0;" edge="1" parent="WIyWlLk6GJQsqaUBKTNV-1" source="Wies4WJ11FOWQQCa9G5b-15">
          <mxGeometry relative="1" as="geometry">
            <mxPoint x="760" y="50" as="targetPoint" />
          </mxGeometry>
        </mxCell>
        <mxCell id="Wies4WJ11FOWQQCa9G5b-15" value="&lt;font style=&quot;font-size: 14px;&quot;&gt;Question 2 find greatest from 2&lt;/font&gt;" style="text;html=1;align=center;verticalAlign=middle;whiteSpace=wrap;rounded=0;fontStyle=1" vertex="1" parent="WIyWlLk6GJQsqaUBKTNV-1">
          <mxGeometry x="430" y="15" width="280" height="30" as="geometry" />
        </mxCell>
        <mxCell id="Wies4WJ11FOWQQCa9G5b-17" style="edgeStyle=orthogonalEdgeStyle;rounded=0;orthogonalLoop=1;jettySize=auto;html=1;" edge="1" parent="WIyWlLk6GJQsqaUBKTNV-1" source="Wies4WJ11FOWQQCa9G5b-18">
          <mxGeometry relative="1" as="geometry">
            <mxPoint x="625" y="140" as="targetPoint" />
          </mxGeometry>
        </mxCell>
        <mxCell id="Wies4WJ11FOWQQCa9G5b-18" value="start" style="ellipse;whiteSpace=wrap;html=1;" vertex="1" parent="WIyWlLk6GJQsqaUBKTNV-1">
          <mxGeometry x="585" y="60" width="80" height="40" as="geometry" />
        </mxCell>
        <mxCell id="Wies4WJ11FOWQQCa9G5b-19" value="end" style="ellipse;whiteSpace=wrap;html=1;" vertex="1" parent="WIyWlLk6GJQsqaUBKTNV-1">
          <mxGeometry x="700" y="410" width="80" height="40" as="geometry" />
        </mxCell>
        <mxCell id="Wies4WJ11FOWQQCa9G5b-20" style="edgeStyle=orthogonalEdgeStyle;rounded=0;orthogonalLoop=1;jettySize=auto;html=1;exitX=0.5;exitY=1;exitDx=0;exitDy=0;" edge="1" parent="WIyWlLk6GJQsqaUBKTNV-1" source="Wies4WJ11FOWQQCa9G5b-21">
          <mxGeometry relative="1" as="geometry">
            <mxPoint x="625" y="220" as="targetPoint" />
            <Array as="points">
              <mxPoint x="625" y="200" />
            </Array>
          </mxGeometry>
        </mxCell>
        <mxCell id="Wies4WJ11FOWQQCa9G5b-21" value="let number1 = 0, let numer2= 3" style="shape=parallelogram;perimeter=parallelogramPerimeter;whiteSpace=wrap;html=1;fixedSize=1;" vertex="1" parent="WIyWlLk6GJQsqaUBKTNV-1">
          <mxGeometry x="494" y="140" width="261" height="40" as="geometry" />
        </mxCell>
        <mxCell id="Wies4WJ11FOWQQCa9G5b-26" style="edgeStyle=orthogonalEdgeStyle;rounded=0;orthogonalLoop=1;jettySize=auto;html=1;exitX=1;exitY=1;exitDx=0;exitDy=0;" edge="1" parent="WIyWlLk6GJQsqaUBKTNV-1" source="Wies4WJ11FOWQQCa9G5b-23">
          <mxGeometry relative="1" as="geometry">
            <mxPoint x="750" y="310" as="targetPoint" />
          </mxGeometry>
        </mxCell>
        <mxCell id="Wies4WJ11FOWQQCa9G5b-27" style="edgeStyle=orthogonalEdgeStyle;rounded=0;orthogonalLoop=1;jettySize=auto;html=1;exitX=0;exitY=1;exitDx=0;exitDy=0;" edge="1" parent="WIyWlLk6GJQsqaUBKTNV-1" source="Wies4WJ11FOWQQCa9G5b-23">
          <mxGeometry relative="1" as="geometry">
            <mxPoint x="510" y="300" as="targetPoint" />
          </mxGeometry>
        </mxCell>
        <mxCell id="Wies4WJ11FOWQQCa9G5b-23" value="if(number1 &amp;gt; number2)" style="rounded=0;whiteSpace=wrap;html=1;" vertex="1" parent="WIyWlLk6GJQsqaUBKTNV-1">
          <mxGeometry x="550" y="220" width="175" height="30" as="geometry" />
        </mxCell>
        <mxCell id="Wies4WJ11FOWQQCa9G5b-24" value="" style="edgeStyle=orthogonalEdgeStyle;rounded=0;orthogonalLoop=1;jettySize=auto;html=1;" edge="1" parent="WIyWlLk6GJQsqaUBKTNV-1" target="Wies4WJ11FOWQQCa9G5b-19">
          <mxGeometry relative="1" as="geometry">
            <mxPoint x="740.0000000000002" y="370" as="sourcePoint" />
          </mxGeometry>
        </mxCell>
        <mxCell id="Wies4WJ11FOWQQCa9G5b-28" value="yes" style="text;html=1;align=center;verticalAlign=middle;whiteSpace=wrap;rounded=0;" vertex="1" parent="WIyWlLk6GJQsqaUBKTNV-1">
          <mxGeometry x="720" y="250" width="60" height="30" as="geometry" />
        </mxCell>
        <mxCell id="Wies4WJ11FOWQQCa9G5b-29" value="No" style="text;html=1;align=center;verticalAlign=middle;whiteSpace=wrap;rounded=0;" vertex="1" parent="WIyWlLk6GJQsqaUBKTNV-1">
          <mxGeometry x="500" y="250" width="50" height="20" as="geometry" />
        </mxCell>
        <mxCell id="Wies4WJ11FOWQQCa9G5b-30" value="print &quot;false&quot;" style="shape=parallelogram;perimeter=parallelogramPerimeter;whiteSpace=wrap;html=1;fixedSize=1;" vertex="1" parent="WIyWlLk6GJQsqaUBKTNV-1">
          <mxGeometry x="450" y="300" width="120" height="60" as="geometry" />
        </mxCell>
        <mxCell id="Wies4WJ11FOWQQCa9G5b-31" value="print &quot;true&quot;" style="shape=parallelogram;perimeter=parallelogramPerimeter;whiteSpace=wrap;html=1;fixedSize=1;" vertex="1" parent="WIyWlLk6GJQsqaUBKTNV-1">
          <mxGeometry x="685" y="310" width="130" height="60" as="geometry" />
        </mxCell>
        <mxCell id="Wies4WJ11FOWQQCa9G5b-32" value="end" style="ellipse;whiteSpace=wrap;html=1;" vertex="1" parent="WIyWlLk6GJQsqaUBKTNV-1">
          <mxGeometry x="460" y="400" width="80" height="40" as="geometry" />
        </mxCell>
        <mxCell id="Wies4WJ11FOWQQCa9G5b-33" value="" style="edgeStyle=orthogonalEdgeStyle;rounded=0;orthogonalLoop=1;jettySize=auto;html=1;" edge="1" parent="WIyWlLk6GJQsqaUBKTNV-1" target="Wies4WJ11FOWQQCa9G5b-32">
          <mxGeometry relative="1" as="geometry">
            <mxPoint x="500.0000000000002" y="360" as="sourcePoint" />
          </mxGeometry>
        </mxCell>
        <mxCell id="Wies4WJ11FOWQQCa9G5b-39" value="" style="swimlane;startSize=0;" vertex="1" parent="WIyWlLk6GJQsqaUBKTNV-1">
          <mxGeometry x="395" y="55" width="460" height="410" as="geometry" />
        </mxCell>
        <mxCell id="Wies4WJ11FOWQQCa9G5b-41" style="edgeStyle=orthogonalEdgeStyle;rounded=0;orthogonalLoop=1;jettySize=auto;html=1;exitX=1;exitY=0.5;exitDx=0;exitDy=0;" edge="1" parent="WIyWlLk6GJQsqaUBKTNV-1" source="Wies4WJ11FOWQQCa9G5b-42">
          <mxGeometry relative="1" as="geometry">
            <mxPoint x="1265" y="50" as="targetPoint" />
          </mxGeometry>
        </mxCell>
        <mxCell id="Wies4WJ11FOWQQCa9G5b-42" value="&lt;font style=&quot;font-size: 14px;&quot;&gt;Question 3 Print even numbers from 9-100&lt;/font&gt;" style="text;html=1;align=center;verticalAlign=middle;whiteSpace=wrap;rounded=0;fontStyle=1" vertex="1" parent="WIyWlLk6GJQsqaUBKTNV-1">
          <mxGeometry x="935" y="15" width="280" height="30" as="geometry" />
        </mxCell>
        <mxCell id="Wies4WJ11FOWQQCa9G5b-43" style="edgeStyle=orthogonalEdgeStyle;rounded=0;orthogonalLoop=1;jettySize=auto;html=1;" edge="1" parent="WIyWlLk6GJQsqaUBKTNV-1" source="Wies4WJ11FOWQQCa9G5b-44">
          <mxGeometry relative="1" as="geometry">
            <mxPoint x="1130" y="140" as="targetPoint" />
          </mxGeometry>
        </mxCell>
        <mxCell id="Wies4WJ11FOWQQCa9G5b-44" value="start" style="ellipse;whiteSpace=wrap;html=1;" vertex="1" parent="WIyWlLk6GJQsqaUBKTNV-1">
          <mxGeometry x="1090" y="60" width="80" height="40" as="geometry" />
        </mxCell>
        <mxCell id="Wies4WJ11FOWQQCa9G5b-46" style="edgeStyle=orthogonalEdgeStyle;rounded=0;orthogonalLoop=1;jettySize=auto;html=1;exitX=0.5;exitY=1;exitDx=0;exitDy=0;" edge="1" parent="WIyWlLk6GJQsqaUBKTNV-1" source="Wies4WJ11FOWQQCa9G5b-47">
          <mxGeometry relative="1" as="geometry">
            <mxPoint x="1130" y="220" as="targetPoint" />
            <Array as="points">
              <mxPoint x="1130" y="200" />
            </Array>
          </mxGeometry>
        </mxCell>
        <mxCell id="Wies4WJ11FOWQQCa9G5b-47" value="let start = 9 , let end = 100" style="shape=parallelogram;perimeter=parallelogramPerimeter;whiteSpace=wrap;html=1;fixedSize=1;" vertex="1" parent="WIyWlLk6GJQsqaUBKTNV-1">
          <mxGeometry x="999" y="140" width="261" height="40" as="geometry" />
        </mxCell>
        <mxCell id="Wies4WJ11FOWQQCa9G5b-49" style="edgeStyle=orthogonalEdgeStyle;rounded=0;orthogonalLoop=1;jettySize=auto;html=1;exitX=0;exitY=1;exitDx=0;exitDy=0;" edge="1" parent="WIyWlLk6GJQsqaUBKTNV-1" source="Wies4WJ11FOWQQCa9G5b-50">
          <mxGeometry relative="1" as="geometry">
            <mxPoint x="1015" y="300" as="targetPoint" />
          </mxGeometry>
        </mxCell>
        <mxCell id="Wies4WJ11FOWQQCa9G5b-64" value="no" style="edgeLabel;html=1;align=center;verticalAlign=middle;resizable=0;points=[];" vertex="1" connectable="0" parent="Wies4WJ11FOWQQCa9G5b-49">
          <mxGeometry x="-0.3086" relative="1" as="geometry">
            <mxPoint as="offset" />
          </mxGeometry>
        </mxCell>
        <mxCell id="Wies4WJ11FOWQQCa9G5b-68" style="edgeStyle=orthogonalEdgeStyle;rounded=0;orthogonalLoop=1;jettySize=auto;html=1;exitX=1;exitY=1;exitDx=0;exitDy=0;" edge="1" parent="WIyWlLk6GJQsqaUBKTNV-1" source="Wies4WJ11FOWQQCa9G5b-50" target="Wies4WJ11FOWQQCa9G5b-59">
          <mxGeometry relative="1" as="geometry" />
        </mxCell>
        <mxCell id="Wies4WJ11FOWQQCa9G5b-69" value="yes" style="edgeLabel;html=1;align=center;verticalAlign=middle;resizable=0;points=[];" vertex="1" connectable="0" parent="Wies4WJ11FOWQQCa9G5b-68">
          <mxGeometry x="-0.1509" y="-4" relative="1" as="geometry">
            <mxPoint as="offset" />
          </mxGeometry>
        </mxCell>
        <mxCell id="Wies4WJ11FOWQQCa9G5b-50" value="while end &amp;gt; start&amp;nbsp;" style="rounded=0;whiteSpace=wrap;html=1;" vertex="1" parent="WIyWlLk6GJQsqaUBKTNV-1">
          <mxGeometry x="1055" y="220" width="175" height="30" as="geometry" />
        </mxCell>
        <mxCell id="Wies4WJ11FOWQQCa9G5b-58" value="" style="swimlane;startSize=0;" vertex="1" parent="WIyWlLk6GJQsqaUBKTNV-1">
          <mxGeometry x="880" y="50" width="750" height="510" as="geometry" />
        </mxCell>
        <mxCell id="Wies4WJ11FOWQQCa9G5b-57" value="" style="edgeStyle=orthogonalEdgeStyle;rounded=0;orthogonalLoop=1;jettySize=auto;html=1;" edge="1" parent="Wies4WJ11FOWQQCa9G5b-58" target="Wies4WJ11FOWQQCa9G5b-56">
          <mxGeometry relative="1" as="geometry">
            <mxPoint x="105.00000000000023" y="290" as="sourcePoint" />
            <Array as="points">
              <mxPoint x="105" y="290" />
            </Array>
          </mxGeometry>
        </mxCell>
        <mxCell id="Wies4WJ11FOWQQCa9G5b-56" value="end" style="ellipse;whiteSpace=wrap;html=1;" vertex="1" parent="Wies4WJ11FOWQQCa9G5b-58">
          <mxGeometry x="70" y="340" width="80" height="40" as="geometry" />
        </mxCell>
        <mxCell id="Wies4WJ11FOWQQCa9G5b-67" value="Print both values are same" style="shape=parallelogram;perimeter=parallelogramPerimeter;whiteSpace=wrap;html=1;fixedSize=1;" vertex="1" parent="Wies4WJ11FOWQQCa9G5b-58">
          <mxGeometry x="30" y="250" width="160" height="60" as="geometry" />
        </mxCell>
        <mxCell id="Wies4WJ11FOWQQCa9G5b-79" value="start = start +1" style="rounded=0;whiteSpace=wrap;html=1;" vertex="1" parent="Wies4WJ11FOWQQCa9G5b-58">
          <mxGeometry x="270" y="250" width="120" height="60" as="geometry" />
        </mxCell>
        <mxCell id="Wies4WJ11FOWQQCa9G5b-95" value="end" style="ellipse;whiteSpace=wrap;html=1;" vertex="1" parent="Wies4WJ11FOWQQCa9G5b-58">
          <mxGeometry x="440" y="430" width="80" height="40" as="geometry" />
        </mxCell>
        <mxCell id="Wies4WJ11FOWQQCa9G5b-89" style="edgeStyle=orthogonalEdgeStyle;rounded=0;orthogonalLoop=1;jettySize=auto;html=1;exitX=0;exitY=0.5;exitDx=0;exitDy=0;entryX=1;entryY=0.5;entryDx=0;entryDy=0;" edge="1" parent="WIyWlLk6GJQsqaUBKTNV-1" source="Wies4WJ11FOWQQCa9G5b-59" target="Wies4WJ11FOWQQCa9G5b-79">
          <mxGeometry relative="1" as="geometry" />
        </mxCell>
        <mxCell id="Wies4WJ11FOWQQCa9G5b-59" value="if start %2 == 0 ?" style="rounded=1;whiteSpace=wrap;html=1;arcSize=0;" vertex="1" parent="WIyWlLk6GJQsqaUBKTNV-1">
          <mxGeometry x="1310" y="300" width="125" height="45" as="geometry" />
        </mxCell>
        <mxCell id="Wies4WJ11FOWQQCa9G5b-72" value="print even number" style="shape=parallelogram;perimeter=parallelogramPerimeter;whiteSpace=wrap;html=1;fixedSize=1;" vertex="1" parent="WIyWlLk6GJQsqaUBKTNV-1">
          <mxGeometry x="1310" y="382.5" width="120" height="60" as="geometry" />
        </mxCell>
        <mxCell id="Wies4WJ11FOWQQCa9G5b-73" style="edgeStyle=orthogonalEdgeStyle;rounded=0;orthogonalLoop=1;jettySize=auto;html=1;exitX=0.5;exitY=1;exitDx=0;exitDy=0;entryX=0.565;entryY=0.018;entryDx=0;entryDy=0;entryPerimeter=0;" edge="1" parent="WIyWlLk6GJQsqaUBKTNV-1" source="Wies4WJ11FOWQQCa9G5b-59" target="Wies4WJ11FOWQQCa9G5b-72">
          <mxGeometry relative="1" as="geometry" />
        </mxCell>
        <mxCell id="Wies4WJ11FOWQQCa9G5b-93" value="yes" style="edgeLabel;html=1;align=center;verticalAlign=middle;resizable=0;points=[];" vertex="1" connectable="0" parent="Wies4WJ11FOWQQCa9G5b-73">
          <mxGeometry x="-0.1495" y="-1" relative="1" as="geometry">
            <mxPoint as="offset" />
          </mxGeometry>
        </mxCell>
        <mxCell id="Wies4WJ11FOWQQCa9G5b-90" style="edgeStyle=orthogonalEdgeStyle;rounded=0;orthogonalLoop=1;jettySize=auto;html=1;exitX=0.25;exitY=0;exitDx=0;exitDy=0;entryX=0.6;entryY=0.917;entryDx=0;entryDy=0;entryPerimeter=0;" edge="1" parent="WIyWlLk6GJQsqaUBKTNV-1" source="Wies4WJ11FOWQQCa9G5b-79" target="Wies4WJ11FOWQQCa9G5b-50">
          <mxGeometry relative="1" as="geometry" />
        </mxCell>
        <mxCell id="Wies4WJ11FOWQQCa9G5b-96" style="edgeStyle=orthogonalEdgeStyle;rounded=0;orthogonalLoop=1;jettySize=auto;html=1;exitX=0.5;exitY=1;exitDx=0;exitDy=0;entryX=0.686;entryY=0.074;entryDx=0;entryDy=0;entryPerimeter=0;" edge="1" parent="WIyWlLk6GJQsqaUBKTNV-1" source="Wies4WJ11FOWQQCa9G5b-72" target="Wies4WJ11FOWQQCa9G5b-95">
          <mxGeometry relative="1" as="geometry" />
        </mxCell>
      </root>
    </mxGraphModel>
  </diagram>
</mxfile>
